<svg width="127" height="20" viewBox="0 0 127 20" fill="none" xmlns="http://www.w3.org/2000/svg">
<path d="M15 11.5499C15 14.4909 12.6215 16.875 9.6875 16.875C6.75349 16.875 4.375 14.4909 4.375 11.5499C4.375 8.60897 9.6875 3.125 9.6875 3.125C9.6875 3.125 15 8.60897 15 11.5499Z" fill="white"/>
<path d="M34.656 16V5.44L35.344 6.192H32.128V4.8H36.24V16H34.656ZM38.8339 12.272V10.944H43.1379V12.272H38.8339ZM45.5029 16V4.128H47.0389V16H45.5029ZM49.9716 16V7.52H51.5076V16H49.9716ZM50.7396 5.888C50.441 5.888 50.1903 5.792 49.9876 5.6C49.7956 5.408 49.6996 5.17333 49.6996 4.896C49.6996 4.608 49.7956 4.368 49.9876 4.176C50.1903 3.984 50.441 3.888 50.7396 3.888C51.0383 3.888 51.2836 3.984 51.4756 4.176C51.6783 4.35733 51.7796 4.58667 51.7796 4.864C51.7796 5.152 51.6836 5.39733 51.4916 5.6C51.2996 5.792 51.049 5.888 50.7396 5.888ZM57.3524 16.096C56.499 16.096 55.8377 15.8667 55.3684 15.408C54.899 14.9493 54.6644 14.2933 54.6644 13.44V5.664H56.2004V13.376C56.2004 13.8347 56.3124 14.1867 56.5364 14.432C56.771 14.6773 57.1017 14.8 57.5284 14.8C58.0084 14.8 58.4084 14.6667 58.7284 14.4L59.2084 15.504C58.9737 15.7067 58.691 15.856 58.3604 15.952C58.0404 16.048 57.7044 16.096 57.3524 16.096ZM53.2244 8.784V7.52H58.6324V8.784H53.2244ZM63.4582 17.6L68.7383 2.528H70.1303L64.8503 17.6H63.4582ZM74.4201 16V14.912L78.9801 10.512C79.3855 10.128 79.6841 9.792 79.8761 9.504C80.0788 9.20533 80.2121 8.93333 80.2761 8.688C80.3508 8.432 80.3881 8.18667 80.3881 7.952C80.3881 7.376 80.1855 6.92267 79.7801 6.592C79.3748 6.26133 78.7828 6.096 78.0041 6.096C77.4068 6.096 76.8681 6.19733 76.3881 6.4C75.9081 6.592 75.4921 6.896 75.1401 7.312L74.0521 6.368C74.4788 5.824 75.0495 5.408 75.7641 5.12C76.4895 4.82133 77.2841 4.672 78.1481 4.672C78.9268 4.672 79.6041 4.8 80.1801 5.056C80.7561 5.30133 81.1988 5.65867 81.5081 6.128C81.8281 6.59733 81.9881 7.152 81.9881 7.792C81.9881 8.15467 81.9401 8.512 81.8441 8.864C81.7481 9.216 81.5668 9.58933 81.3001 9.984C81.0335 10.3787 80.6495 10.8213 80.1481 11.312L76.0841 15.232L75.7001 14.608H82.4681V16H74.4201ZM84.9959 16.096C84.6972 16.096 84.4412 15.9947 84.2279 15.792C84.0145 15.5787 83.9079 15.312 83.9079 14.992C83.9079 14.672 84.0145 14.4107 84.2279 14.208C84.4412 14.0053 84.6972 13.904 84.9959 13.904C85.2839 13.904 85.5292 14.0053 85.7319 14.208C85.9452 14.4107 86.0519 14.672 86.0519 14.992C86.0519 15.312 85.9452 15.5787 85.7319 15.792C85.5292 15.9947 85.2839 16.096 84.9959 16.096ZM91.1809 16.128C90.3915 16.128 89.6235 16.0053 88.8769 15.76C88.1409 15.5147 87.5382 15.184 87.0689 14.768L87.8049 13.504C88.1782 13.856 88.6635 14.144 89.2609 14.368C89.8582 14.592 90.4929 14.704 91.1649 14.704C92.0182 14.704 92.6742 14.5227 93.1329 14.16C93.5915 13.7973 93.8209 13.312 93.8209 12.704C93.8209 12.288 93.7195 11.9253 93.5169 11.616C93.3142 11.3067 92.9622 11.072 92.4609 10.912C91.9702 10.7413 91.2929 10.656 90.4289 10.656H87.8849L88.4769 4.8H94.7969V6.192H89.0689L89.9009 5.408L89.4369 10.032L88.6049 9.264H90.7649C91.8849 9.264 92.7862 9.408 93.4689 9.696C94.1515 9.984 94.6475 10.384 94.9569 10.896C95.2662 11.3973 95.4209 11.9787 95.4209 12.64C95.4209 13.28 95.2662 13.8667 94.9569 14.4C94.6475 14.9227 94.1782 15.344 93.5489 15.664C92.9302 15.9733 92.1409 16.128 91.1809 16.128ZM102.985 13.952L103.017 11.984L107.897 7.52H109.753L106.009 11.2L105.177 11.904L102.985 13.952ZM101.737 16V4.128H103.273V16H101.737ZM108.217 16L104.889 11.872L105.881 10.64L110.105 16H108.217ZM122.095 7.44C122.778 7.44 123.381 7.57333 123.903 7.84C124.426 8.10667 124.831 8.512 125.119 9.056C125.418 9.6 125.567 10.288 125.567 11.12V16H124.031V11.296C124.031 10.4747 123.839 9.856 123.455 9.44C123.071 9.024 122.533 8.816 121.839 8.816C121.327 8.816 120.879 8.92267 120.495 9.136C120.111 9.34933 119.813 9.664 119.599 10.08C119.397 10.496 119.295 11.0133 119.295 11.632V16H117.759V11.296C117.759 10.4747 117.567 9.856 117.183 9.44C116.81 9.024 116.271 8.816 115.567 8.816C115.066 8.816 114.623 8.92267 114.239 9.136C113.855 9.34933 113.557 9.664 113.343 10.08C113.13 10.496 113.023 11.0133 113.023 11.632V16H111.487V7.52H112.959V9.776L112.719 9.2C112.986 8.64533 113.397 8.21333 113.951 7.904C114.506 7.59467 115.151 7.44 115.887 7.44C116.698 7.44 117.397 7.64267 117.983 8.048C118.57 8.44267 118.954 9.04533 119.135 9.856L118.511 9.6C118.767 8.94933 119.215 8.42667 119.855 8.032C120.495 7.63733 121.242 7.44 122.095 7.44Z" fill="white"/>
</svg>
