<svg width="118" height="20" viewBox="0 0 118 20" fill="none" xmlns="http://www.w3.org/2000/svg">
<path d="M10 2C5.582 2 2 5.582 2 10C2 14.418 5.582 18 10 18C14.418 18 18 14.418 18 10C18 5.582 14.418 2 10 2ZM14 9.6666C14 10.2189 13.5523 10.6666 13 10.6666H11.6666C11.1143 10.6666 10.6666 11.1143 10.6666 11.6666V13.3334C10.6666 13.7016 10.3682 14 10 14C9.63185 14 9.3334 13.7016 9.3334 13.3334V11.6666C9.3334 11.1143 8.88568 10.6666 8.3334 10.6666C7.78112 10.6666 7.3334 11.1143 7.3334 11.6666V13.3333C7.3334 13.7015 7.03491 14 6.6667 14C6.29849 14 6 13.7015 6 13.3333V6.6667C6 6.29849 6.29849 6 6.6667 6C7.03491 6 7.3334 6.29849 7.3334 6.6667V8.3334C7.3334 8.88568 7.78112 9.3334 8.3334 9.3334C8.88568 9.3334 9.3334 8.88568 9.3334 8.3334V6.6666C9.3334 6.29845 9.63185 6 10 6C10.3682 6 10.6666 6.29845 10.6666 6.6666V8.3334C10.6666 8.88568 11.1143 9.3334 11.6666 9.3334C12.2189 9.3334 12.6666 8.88568 12.6666 8.3334V6.6667C12.6666 6.29849 12.9651 6 13.3333 6C13.7015 6 14 6.29849 14 6.6667V9.6666Z" fill="white"/>
<path d="M31.984 16L37.056 4.8H38.64L43.728 16H42.048L37.52 5.696H38.16L33.632 16H31.984ZM34.144 13.2L34.576 11.92H40.88L41.344 13.2H34.144ZM48.5865 16.096C47.8612 16.096 47.2212 15.9627 46.6665 15.696C46.1225 15.4293 45.6958 15.024 45.3865 14.48C45.0878 13.9253 44.9385 13.232 44.9385 12.4V7.52H46.4745V12.224C46.4745 13.056 46.6718 13.68 47.0665 14.096C47.4718 14.512 48.0372 14.72 48.7625 14.72C49.2958 14.72 49.7598 14.6133 50.1545 14.4C50.5492 14.176 50.8532 13.856 51.0665 13.44C51.2798 13.0133 51.3865 12.5013 51.3865 11.904V7.52H52.9225V16H51.4665V13.712L51.7065 14.32C51.4292 14.8853 51.0132 15.3227 50.4585 15.632C49.9038 15.9413 49.2798 16.096 48.5865 16.096ZM58.7586 16.096C57.9053 16.096 57.244 15.8667 56.7746 15.408C56.3053 14.9493 56.0706 14.2933 56.0706 13.44V5.664H57.6066V13.376C57.6066 13.8347 57.7186 14.1867 57.9426 14.432C58.1773 14.6773 58.508 14.8 58.9346 14.8C59.4146 14.8 59.8146 14.6667 60.1346 14.4L60.6146 15.504C60.38 15.7067 60.0973 15.856 59.7666 15.952C59.4466 16.048 59.1106 16.096 58.7586 16.096ZM54.6306 8.784V7.52H60.0386V8.784H54.6306ZM65.8224 16.096C64.969 16.096 64.2117 15.9093 63.5504 15.536C62.889 15.1627 62.3664 14.6507 61.9824 14C61.5984 13.3387 61.4064 12.592 61.4064 11.76C61.4064 10.9173 61.5984 10.1707 61.9824 9.52C62.3664 8.86933 62.889 8.36267 63.5504 8C64.2117 7.62667 64.969 7.44 65.8224 7.44C66.665 7.44 67.417 7.62667 68.0784 8C68.7504 8.36267 69.273 8.86933 69.6464 9.52C70.0304 10.16 70.2224 10.9067 70.2224 11.76C70.2224 12.6027 70.0304 13.3493 69.6464 14C69.273 14.6507 68.7504 15.1627 68.0784 15.536C67.417 15.9093 66.665 16.096 65.8224 16.096ZM65.8224 14.752C66.3664 14.752 66.8517 14.6293 67.2784 14.384C67.7157 14.1387 68.057 13.792 68.3024 13.344C68.5477 12.8853 68.6704 12.3573 68.6704 11.76C68.6704 11.152 68.5477 10.6293 68.3024 10.192C68.057 9.744 67.7157 9.39733 67.2784 9.152C66.8517 8.90667 66.3664 8.784 65.8224 8.784C65.2784 8.784 64.793 8.90667 64.3664 9.152C63.9397 9.39733 63.5984 9.744 63.3424 10.192C63.0864 10.6293 62.9584 11.152 62.9584 11.76C62.9584 12.3573 63.0864 12.8853 63.3424 13.344C63.5984 13.792 63.9397 14.1387 64.3664 14.384C64.793 14.6293 65.2784 14.752 65.8224 14.752ZM82.9546 7.44C83.6373 7.44 84.24 7.57333 84.7626 7.84C85.2853 8.10667 85.6906 8.512 85.9786 9.056C86.2773 9.6 86.4266 10.288 86.4266 11.12V16H84.8906V11.296C84.8906 10.4747 84.6986 9.856 84.3146 9.44C83.9306 9.024 83.392 8.816 82.6986 8.816C82.1866 8.816 81.7386 8.92267 81.3546 9.136C80.9706 9.34933 80.672 9.664 80.4586 10.08C80.256 10.496 80.1546 11.0133 80.1546 11.632V16H78.6186V11.296C78.6186 10.4747 78.4266 9.856 78.0426 9.44C77.6693 9.024 77.1306 8.816 76.4266 8.816C75.9253 8.816 75.4826 8.92267 75.0986 9.136C74.7146 9.34933 74.416 9.664 74.2026 10.08C73.9893 10.496 73.8826 11.0133 73.8826 11.632V16H72.3466V7.52H73.8186V9.776L73.5786 9.2C73.8453 8.64533 74.256 8.21333 74.8106 7.904C75.3653 7.59467 76.0106 7.44 76.7466 7.44C77.5573 7.44 78.256 7.64267 78.8426 8.048C79.4293 8.44267 79.8133 9.04533 79.9946 9.856L79.3706 9.6C79.6266 8.94933 80.0746 8.42667 80.7146 8.032C81.3546 7.63733 82.1013 7.44 82.9546 7.44ZM94.5169 16V14.208L94.4369 13.872V10.816C94.4369 10.1653 94.2449 9.664 93.8609 9.312C93.4875 8.94933 92.9222 8.768 92.1649 8.768C91.6635 8.768 91.1729 8.85333 90.6929 9.024C90.2129 9.184 89.8075 9.40267 89.4769 9.68L88.8369 8.528C89.2742 8.176 89.7969 7.90933 90.4049 7.728C91.0235 7.536 91.6689 7.44 92.3409 7.44C93.5035 7.44 94.3995 7.72267 95.0289 8.288C95.6582 8.85333 95.9729 9.71733 95.9729 10.88V16H94.5169ZM91.7329 16.096C91.1035 16.096 90.5489 15.9893 90.0689 15.776C89.5995 15.5627 89.2369 15.2693 88.9809 14.896C88.7249 14.512 88.5969 14.08 88.5969 13.6C88.5969 13.1413 88.7035 12.7253 88.9169 12.352C89.1409 11.9787 89.4982 11.68 89.9889 11.456C90.4902 11.232 91.1622 11.12 92.0049 11.12H94.6929V12.224H92.0689C91.3009 12.224 90.7835 12.352 90.5169 12.608C90.2502 12.864 90.1169 13.1733 90.1169 13.536C90.1169 13.952 90.2822 14.288 90.6129 14.544C90.9435 14.7893 91.4022 14.912 91.9889 14.912C92.5649 14.912 93.0662 14.784 93.4929 14.528C93.9302 14.272 94.2449 13.8987 94.4369 13.408L94.7409 14.464C94.5382 14.9653 94.1809 15.3653 93.6689 15.664C93.1569 15.952 92.5115 16.096 91.7329 16.096ZM101.727 16.096C100.874 16.096 100.213 15.8667 99.7434 15.408C99.274 14.9493 99.0394 14.2933 99.0394 13.44V5.664H100.575V13.376C100.575 13.8347 100.687 14.1867 100.911 14.432C101.146 14.6773 101.477 14.8 101.903 14.8C102.383 14.8 102.783 14.6667 103.103 14.4L103.583 15.504C103.349 15.7067 103.066 15.856 102.735 15.952C102.415 16.048 102.079 16.096 101.727 16.096ZM97.5994 8.784V7.52H103.007V8.784H97.5994ZM105.44 16V7.52H106.976V16H105.44ZM106.208 5.888C105.91 5.888 105.659 5.792 105.456 5.6C105.264 5.408 105.168 5.17333 105.168 4.896C105.168 4.608 105.264 4.368 105.456 4.176C105.659 3.984 105.91 3.888 106.208 3.888C106.507 3.888 106.752 3.984 106.944 4.176C107.147 4.35733 107.248 4.58667 107.248 4.864C107.248 5.152 107.152 5.39733 106.96 5.6C106.768 5.792 106.518 5.888 106.208 5.888ZM113.605 16.096C112.741 16.096 111.968 15.9093 111.285 15.536C110.613 15.1627 110.085 14.6507 109.701 14C109.317 13.3493 109.125 12.6027 109.125 11.76C109.125 10.9173 109.317 10.1707 109.701 9.52C110.085 8.86933 110.613 8.36267 111.285 8C111.968 7.62667 112.741 7.44 113.605 7.44C114.373 7.44 115.056 7.59467 115.653 7.904C116.261 8.20267 116.73 8.65067 117.061 9.248L115.893 10C115.616 9.584 115.274 9.28 114.869 9.088C114.474 8.88533 114.048 8.784 113.589 8.784C113.034 8.784 112.538 8.90667 112.101 9.152C111.664 9.39733 111.317 9.744 111.061 10.192C110.805 10.6293 110.677 11.152 110.677 11.76C110.677 12.368 110.805 12.896 111.061 13.344C111.317 13.792 111.664 14.1387 112.101 14.384C112.538 14.6293 113.034 14.752 113.589 14.752C114.048 14.752 114.474 14.656 114.869 14.464C115.274 14.2613 115.616 13.952 115.893 13.536L117.061 14.272C116.73 14.8587 116.261 15.312 115.653 15.632C115.056 15.9413 114.373 16.096 113.605 16.096Z" fill="white"/>
</svg>
