<svg width="90" height="20" viewBox="0 0 90 20" fill="none" xmlns="http://www.w3.org/2000/svg">
<path d="M9.99996 3.125C8.27407 3.125 6.87496 4.52411 6.87496 6.25C6.87496 7.97589 8.27407 9.375 9.99996 9.375C11.7258 9.375 13.125 7.97589 13.125 6.25C13.125 4.52411 11.7258 3.125 9.99996 3.125Z" fill="white"/>
<path d="M6.66663 11.0417C4.94074 11.0417 3.54163 12.4408 3.54163 14.1667V15.1569C3.54163 15.7846 3.99653 16.3198 4.61602 16.4209C8.18171 17.0031 11.8182 17.0031 15.3839 16.4209C16.0034 16.3198 16.4583 15.7846 16.4583 15.1569V14.1667C16.4583 12.4408 15.0592 11.0417 13.3333 11.0417H13.0492C12.8955 11.0417 12.7427 11.066 12.5966 11.1137L11.8753 11.3492C10.6567 11.7471 9.34319 11.7471 8.12462 11.3492L7.40335 11.1137C7.2572 11.066 7.10443 11.0417 6.95068 11.0417H6.66663Z" fill="white"/>
<path d="M36.384 16.128C35.5947 16.128 34.8267 16.0053 34.08 15.76C33.344 15.5147 32.7413 15.184 32.272 14.768L33.008 13.504C33.3813 13.856 33.8667 14.144 34.464 14.368C35.0613 14.592 35.696 14.704 36.368 14.704C37.2213 14.704 37.8773 14.5227 38.336 14.16C38.7947 13.7973 39.024 13.312 39.024 12.704C39.024 12.288 38.9227 11.9253 38.72 11.616C38.5173 11.3067 38.1653 11.072 37.664 10.912C37.1733 10.7413 36.496 10.656 35.632 10.656H33.088L33.68 4.8H40V6.192H34.272L35.104 5.408L34.64 10.032L33.808 9.264H35.968C37.088 9.264 37.9893 9.408 38.672 9.696C39.3547 9.984 39.8507 10.384 40.16 10.896C40.4693 11.3973 40.624 11.9787 40.624 12.64C40.624 13.28 40.4693 13.8667 40.16 14.4C39.8507 14.9227 39.3813 15.344 38.752 15.664C38.1333 15.9733 37.344 16.128 36.384 16.128ZM50.4284 16.128C49.575 16.128 48.759 16 47.9804 15.744C47.2017 15.4773 46.5884 15.136 46.1404 14.72L46.7324 13.472C47.159 13.8453 47.703 14.1547 48.3644 14.4C49.0257 14.6453 49.7137 14.768 50.4284 14.768C51.079 14.768 51.607 14.6933 52.0124 14.544C52.4177 14.3947 52.7164 14.192 52.9084 13.936C53.1004 13.6693 53.1964 13.3707 53.1964 13.04C53.1964 12.656 53.0684 12.3467 52.8124 12.112C52.567 11.8773 52.2417 11.6907 51.8364 11.552C51.4417 11.4027 51.0044 11.2747 50.5244 11.168C50.0444 11.0613 49.559 10.9387 49.0684 10.8C48.5884 10.6507 48.1457 10.464 47.7404 10.24C47.3457 10.016 47.0257 9.71733 46.7804 9.344C46.535 8.96 46.4124 8.46933 46.4124 7.872C46.4124 7.296 46.5617 6.768 46.8604 6.288C47.1697 5.79733 47.639 5.408 48.2684 5.12C48.9084 4.82133 49.719 4.672 50.7004 4.672C51.351 4.672 51.9964 4.75733 52.6364 4.928C53.2764 5.09867 53.831 5.344 54.3004 5.664L53.7724 6.944C53.2924 6.624 52.7857 6.39467 52.2524 6.256C51.719 6.10667 51.2017 6.032 50.7004 6.032C50.071 6.032 49.5537 6.112 49.1484 6.272C48.743 6.432 48.4444 6.64533 48.2524 6.912C48.071 7.17867 47.9804 7.47733 47.9804 7.808C47.9804 8.20267 48.103 8.51733 48.3484 8.752C48.6044 8.98667 48.9297 9.17333 49.3244 9.312C49.7297 9.45067 50.1724 9.57867 50.6524 9.696C51.1324 9.80267 51.6124 9.92533 52.0924 10.064C52.583 10.2027 53.0257 10.384 53.4204 10.608C53.8257 10.832 54.151 11.1307 54.3964 11.504C54.6417 11.8773 54.7644 12.3573 54.7644 12.944C54.7644 13.5093 54.6097 14.0373 54.3004 14.528C53.991 15.008 53.511 15.3973 52.8604 15.696C52.2204 15.984 51.4097 16.128 50.4284 16.128ZM60.6539 16.096C59.7472 16.096 58.9472 15.9093 58.2539 15.536C57.5712 15.1627 57.0379 14.6507 56.6539 14C56.2805 13.3493 56.0939 12.6027 56.0939 11.76C56.0939 10.9173 56.2752 10.1707 56.6379 9.52C57.0112 8.86933 57.5179 8.36267 58.1579 8C58.8085 7.62667 59.5392 7.44 60.3499 7.44C61.1712 7.44 61.8965 7.62133 62.5259 7.984C63.1552 8.34667 63.6459 8.85867 63.9979 9.52C64.3605 10.1707 64.5419 10.9333 64.5419 11.808C64.5419 11.872 64.5365 11.9467 64.5259 12.032C64.5259 12.1173 64.5205 12.1973 64.5099 12.272H57.2939V11.168H63.7099L63.0859 11.552C63.0965 11.008 62.9845 10.5227 62.7499 10.096C62.5152 9.66933 62.1899 9.33867 61.7739 9.104C61.3685 8.85867 60.8939 8.736 60.3499 8.736C59.8165 8.736 59.3419 8.85867 58.9259 9.104C58.5099 9.33867 58.1845 9.67467 57.9499 10.112C57.7152 10.5387 57.5979 11.0293 57.5979 11.584V11.84C57.5979 12.4053 57.7259 12.912 57.9819 13.36C58.2485 13.7973 58.6165 14.1387 59.0859 14.384C59.5552 14.6293 60.0939 14.752 60.7019 14.752C61.2032 14.752 61.6565 14.6667 62.0619 14.496C62.4779 14.3253 62.8405 14.0693 63.1499 13.728L63.9979 14.72C63.6139 15.168 63.1339 15.5093 62.5579 15.744C61.9925 15.9787 61.3579 16.096 60.6539 16.096ZM71.7044 16V14.208L71.6244 13.872V10.816C71.6244 10.1653 71.4324 9.664 71.0484 9.312C70.675 8.94933 70.1097 8.768 69.3524 8.768C68.851 8.768 68.3604 8.85333 67.8804 9.024C67.4004 9.184 66.995 9.40267 66.6644 9.68L66.0244 8.528C66.4617 8.176 66.9844 7.90933 67.5924 7.728C68.211 7.536 68.8564 7.44 69.5284 7.44C70.691 7.44 71.587 7.72267 72.2164 8.288C72.8457 8.85333 73.1604 9.71733 73.1604 10.88V16H71.7044ZM68.9204 16.096C68.291 16.096 67.7364 15.9893 67.2564 15.776C66.787 15.5627 66.4244 15.2693 66.1684 14.896C65.9124 14.512 65.7844 14.08 65.7844 13.6C65.7844 13.1413 65.891 12.7253 66.1044 12.352C66.3284 11.9787 66.6857 11.68 67.1764 11.456C67.6777 11.232 68.3497 11.12 69.1924 11.12H71.8804V12.224H69.2564C68.4884 12.224 67.971 12.352 67.7044 12.608C67.4377 12.864 67.3044 13.1733 67.3044 13.536C67.3044 13.952 67.4697 14.288 67.8004 14.544C68.131 14.7893 68.5897 14.912 69.1764 14.912C69.7524 14.912 70.2537 14.784 70.6804 14.528C71.1177 14.272 71.4324 13.8987 71.6244 13.408L71.9284 14.464C71.7257 14.9653 71.3684 15.3653 70.8564 15.664C70.3444 15.952 69.699 16.096 68.9204 16.096ZM78.9149 16.096C78.0615 16.096 77.4002 15.8667 76.9309 15.408C76.4615 14.9493 76.2269 14.2933 76.2269 13.44V5.664H77.7629V13.376C77.7629 13.8347 77.8749 14.1867 78.0989 14.432C78.3335 14.6773 78.6642 14.8 79.0909 14.8C79.5709 14.8 79.9709 14.6667 80.2909 14.4L80.7709 15.504C80.5362 15.7067 80.2535 15.856 79.9229 15.952C79.6029 16.048 79.2669 16.096 78.9149 16.096ZM74.7869 8.784V7.52H80.1949V8.784H74.7869ZM85.0599 16.096C84.3559 16.096 83.6839 16 83.0439 15.808C82.4145 15.616 81.9185 15.3813 81.5559 15.104L82.1959 13.888C82.5585 14.1333 83.0065 14.3413 83.5399 14.512C84.0732 14.6827 84.6172 14.768 85.1719 14.768C85.8865 14.768 86.3985 14.6667 86.7079 14.464C87.0279 14.2613 87.1879 13.9787 87.1879 13.616C87.1879 13.3493 87.0919 13.1413 86.8999 12.992C86.7079 12.8427 86.4519 12.7307 86.1319 12.656C85.8225 12.5813 85.4759 12.5173 85.0919 12.464C84.7079 12.4 84.3239 12.3253 83.9399 12.24C83.5559 12.144 83.2039 12.016 82.8839 11.856C82.5639 11.6853 82.3079 11.456 82.1159 11.168C81.9239 10.8693 81.8279 10.4747 81.8279 9.984C81.8279 9.472 81.9719 9.024 82.2599 8.64C82.5479 8.256 82.9532 7.96267 83.4759 7.76C84.0092 7.54667 84.6385 7.44 85.3639 7.44C85.9185 7.44 86.4785 7.50933 87.0439 7.648C87.6199 7.776 88.0892 7.96267 88.4519 8.208L87.7959 9.424C87.4119 9.168 87.0119 8.992 86.5959 8.896C86.1799 8.8 85.7639 8.752 85.3479 8.752C84.6759 8.752 84.1745 8.864 83.8439 9.088C83.5132 9.30133 83.3479 9.57867 83.3479 9.92C83.3479 10.208 83.4439 10.432 83.6359 10.592C83.8385 10.7413 84.0945 10.8587 84.4039 10.944C84.7239 11.0293 85.0759 11.104 85.4599 11.168C85.8439 11.2213 86.2279 11.296 86.6119 11.392C86.9959 11.4773 87.3425 11.6 87.6519 11.76C87.9719 11.92 88.2279 12.144 88.4199 12.432C88.6225 12.72 88.7239 13.104 88.7239 13.584C88.7239 14.096 88.5745 14.5387 88.2759 14.912C87.9772 15.2853 87.5559 15.5787 87.0119 15.792C86.4679 15.9947 85.8172 16.096 85.0599 16.096Z" fill="white"/>
</svg>
