<svg width="102" height="20" viewBox="0 0 102 20" fill="none" xmlns="http://www.w3.org/2000/svg">
<path fill-rule="evenodd" clip-rule="evenodd" d="M11.875 2.08333C11.875 1.96827 11.7817 1.875 11.6666 1.875H5.83329C4.56764 1.875 3.54163 2.90102 3.54163 4.16667V15.8333C3.54163 17.099 4.56764 18.125 5.83329 18.125H14.1666C15.4323 18.125 16.4583 17.099 16.4583 15.8333V7.62255C16.4583 7.50749 16.365 7.41422 16.25 7.41422H12.5C12.1548 7.41422 11.875 7.13439 11.875 6.78922V2.08333ZM9.99996 8.33333C9.07948 8.33333 8.33329 9.07953 8.33329 10C8.33329 10.9205 9.07948 11.6667 9.99996 11.6667C10.9204 11.6667 11.6666 10.9205 11.6666 10C11.6666 9.07953 10.9204 8.33333 9.99996 8.33333ZM6.66663 15.4167C6.66663 14.036 7.78591 12.9167 9.16663 12.9167H10.8333C12.214 12.9167 13.3333 14.036 13.3333 15.4167C13.3333 15.8769 12.9602 16.25 12.5 16.25H7.49996C7.03972 16.25 6.66663 15.8769 6.66663 15.4167Z" fill="white"/>
<path d="M13.125 2.35345C13.125 2.1997 13.2855 2.10208 13.4051 2.19866C13.5059 2.28 13.5965 2.3753 13.6737 2.48296L16.1847 5.98121C16.2419 6.06085 16.1799 6.16422 16.0819 6.16422H13.3333C13.2182 6.16422 13.125 6.07094 13.125 5.95588V2.35345Z" fill="white"/>
<path d="M30.592 16V14.912L35.152 10.512C35.5573 10.128 35.856 9.792 36.048 9.504C36.2507 9.20533 36.384 8.93333 36.448 8.688C36.5227 8.432 36.56 8.18667 36.56 7.952C36.56 7.376 36.3573 6.92267 35.952 6.592C35.5467 6.26133 34.9547 6.096 34.176 6.096C33.5787 6.096 33.04 6.19733 32.56 6.4C32.08 6.592 31.664 6.896 31.312 7.312L30.224 6.368C30.6507 5.824 31.2213 5.408 31.936 5.12C32.6613 4.82133 33.456 4.672 34.32 4.672C35.0987 4.672 35.776 4.8 36.352 5.056C36.928 5.30133 37.3707 5.65867 37.68 6.128C38 6.59733 38.16 7.152 38.16 7.792C38.16 8.15467 38.112 8.512 38.016 8.864C37.92 9.216 37.7387 9.58933 37.472 9.984C37.2053 10.3787 36.8213 10.8213 36.32 11.312L32.256 15.232L31.872 14.608H38.64V16H30.592ZM41.8435 16V5.44L42.5315 6.192H39.3155V4.8H43.4275V16H41.8435ZM49.0934 13.904V6.896H50.4374V13.904H49.0934ZM46.1814 11.04V9.776H53.3494V11.04H46.1814ZM63.1028 16V11.712L63.4708 12.704L58.6547 4.8H60.3668L64.4148 11.472H63.4868L67.5508 4.8H69.1348L64.3348 12.704L64.6868 11.712V16H63.1028ZM73.357 16.096C72.4503 16.096 71.6503 15.9093 70.957 15.536C70.2743 15.1627 69.741 14.6507 69.357 14C68.9837 13.3493 68.797 12.6027 68.797 11.76C68.797 10.9173 68.9783 10.1707 69.341 9.52C69.7143 8.86933 70.221 8.36267 70.861 8C71.5117 7.62667 72.2423 7.44 73.053 7.44C73.8743 7.44 74.5997 7.62133 75.229 7.984C75.8583 8.34667 76.349 8.85867 76.701 9.52C77.0637 10.1707 77.245 10.9333 77.245 11.808C77.245 11.872 77.2397 11.9467 77.229 12.032C77.229 12.1173 77.2237 12.1973 77.213 12.272H69.997V11.168H76.413L75.789 11.552C75.7997 11.008 75.6877 10.5227 75.453 10.096C75.2183 9.66933 74.893 9.33867 74.477 9.104C74.0717 8.85867 73.597 8.736 73.053 8.736C72.5197 8.736 72.045 8.85867 71.629 9.104C71.213 9.33867 70.8877 9.67467 70.653 10.112C70.4183 10.5387 70.301 11.0293 70.301 11.584V11.84C70.301 12.4053 70.429 12.912 70.685 13.36C70.9517 13.7973 71.3197 14.1387 71.789 14.384C72.2583 14.6293 72.797 14.752 73.405 14.752C73.9063 14.752 74.3597 14.6667 74.765 14.496C75.181 14.3253 75.5437 14.0693 75.853 13.728L76.701 14.72C76.317 15.168 75.837 15.5093 75.261 15.744C74.6957 15.9787 74.061 16.096 73.357 16.096ZM84.4075 16V14.208L84.3275 13.872V10.816C84.3275 10.1653 84.1355 9.664 83.7515 9.312C83.3782 8.94933 82.8128 8.768 82.0555 8.768C81.5542 8.768 81.0635 8.85333 80.5835 9.024C80.1035 9.184 79.6982 9.40267 79.3675 9.68L78.7275 8.528C79.1648 8.176 79.6875 7.90933 80.2955 7.728C80.9142 7.536 81.5595 7.44 82.2315 7.44C83.3942 7.44 84.2902 7.72267 84.9195 8.288C85.5488 8.85333 85.8635 9.71733 85.8635 10.88V16H84.4075ZM81.6235 16.096C80.9942 16.096 80.4395 15.9893 79.9595 15.776C79.4902 15.5627 79.1275 15.2693 78.8715 14.896C78.6155 14.512 78.4875 14.08 78.4875 13.6C78.4875 13.1413 78.5942 12.7253 78.8075 12.352C79.0315 11.9787 79.3888 11.68 79.8795 11.456C80.3808 11.232 81.0528 11.12 81.8955 11.12H84.5835V12.224H81.9595C81.1915 12.224 80.6742 12.352 80.4075 12.608C80.1408 12.864 80.0075 13.1733 80.0075 13.536C80.0075 13.952 80.1728 14.288 80.5035 14.544C80.8342 14.7893 81.2928 14.912 81.8795 14.912C82.4555 14.912 82.9568 14.784 83.3835 14.528C83.8208 14.272 84.1355 13.8987 84.3275 13.408L84.6315 14.464C84.4288 14.9653 84.0715 15.3653 83.5595 15.664C83.0475 15.952 82.4022 16.096 81.6235 16.096ZM88.706 16V7.52H90.178V9.824L90.034 9.248C90.2687 8.66133 90.6633 8.21333 91.218 7.904C91.7727 7.59467 92.4553 7.44 93.266 7.44V8.928C93.202 8.91733 93.138 8.912 93.074 8.912C93.0207 8.912 92.9673 8.912 92.914 8.912C92.0927 8.912 91.442 9.15733 90.962 9.648C90.482 10.1387 90.242 10.848 90.242 11.776V16H88.706ZM97.6849 16.096C96.9809 16.096 96.3089 16 95.6689 15.808C95.0395 15.616 94.5435 15.3813 94.1809 15.104L94.8209 13.888C95.1835 14.1333 95.6315 14.3413 96.1649 14.512C96.6982 14.6827 97.2422 14.768 97.7969 14.768C98.5115 14.768 99.0235 14.6667 99.3329 14.464C99.6529 14.2613 99.8129 13.9787 99.8129 13.616C99.8129 13.3493 99.7169 13.1413 99.5249 12.992C99.3329 12.8427 99.0769 12.7307 98.7569 12.656C98.4475 12.5813 98.1009 12.5173 97.7169 12.464C97.3329 12.4 96.9489 12.3253 96.5649 12.24C96.1809 12.144 95.8289 12.016 95.5089 11.856C95.1889 11.6853 94.9329 11.456 94.7409 11.168C94.5489 10.8693 94.4529 10.4747 94.4529 9.984C94.4529 9.472 94.5969 9.024 94.8849 8.64C95.1729 8.256 95.5782 7.96267 96.1009 7.76C96.6342 7.54667 97.2635 7.44 97.9889 7.44C98.5435 7.44 99.1035 7.50933 99.6689 7.648C100.245 7.776 100.714 7.96267 101.077 8.208L100.421 9.424C100.037 9.168 99.6369 8.992 99.2209 8.896C98.8049 8.8 98.3889 8.752 97.9729 8.752C97.3009 8.752 96.7995 8.864 96.4689 9.088C96.1382 9.30133 95.9729 9.57867 95.9729 9.92C95.9729 10.208 96.0689 10.432 96.2609 10.592C96.4635 10.7413 96.7195 10.8587 97.0289 10.944C97.3489 11.0293 97.7009 11.104 98.0849 11.168C98.4689 11.2213 98.8529 11.296 99.2369 11.392C99.6209 11.4773 99.9675 11.6 100.277 11.76C100.597 11.92 100.853 12.144 101.045 12.432C101.248 12.72 101.349 13.104 101.349 13.584C101.349 14.096 101.2 14.5387 100.901 14.912C100.602 15.2853 100.181 15.5787 99.6369 15.792C99.0929 15.9947 98.4422 16.096 97.6849 16.096Z" fill="white"/>
</svg>
